<?xml version="1.0" encoding="utf-8"?>
<!-- Generator: Adobe Illustrator 23.0.2, SVG Export Plug-In . SVG Version: 6.00 Build 0)  -->
<svg version="1.1" id="Layer_1" xmlns="http://www.w3.org/2000/svg" xmlns:xlink="http://www.w3.org/1999/xlink" x="0px" y="0px"
	 viewBox="0 0 595.28 461.09" style="enable-background:new 0 0 595.28 461.09;" xml:space="preserve">
<g>
	<g>
		<path d="M421.63,383.25c-7.08,0-11.52-2.04-12.16-2.36c-35.7-12.11-45.67-52.99-45.77-53.4c-0.13-0.38-15.62-46.07-18.12-73.01
			c-2.49-26.88-2.02-63.57-2.01-63.94l1.78,0.02c-0.01,0.37-0.47,36.96,2.01,63.75c2.47,26.73,17.9,72.23,18.05,72.69
			c0.12,0.49,9.89,40.46,44.68,52.23l0.14,0.06c0.26,0.14,25.93,13.19,57.7-25.92c32.25-39.69,90.82-145.22,91.4-146.28l1.56,0.86
			c-0.59,1.06-59.23,106.72-91.58,146.54C449.94,378.34,432.61,383.25,421.63,383.25z"/>
	</g>
	<path d="M571.56,203.24c0,0,0.13-1.89,0.13-2.39c0-0.5-0.63-0.75-0.63-0.75c-3.14,0.38-3.77-0.38-3.77-0.38
		c-0.5-0.88,1.38-3.64,1.38-3.64c1.01-4.15-1.76-5.4-1.76-5.4s-2.14-1.76-4.02-2.89c-1.89-1.13-3.64-1.01-3.64-1.01l-0.88-0.63
		c-13.07-6.66-22.87-15.08-28.53-19.61c-5.66-4.52-7.79-10.56-7.79-10.56s-3.39-11.56-6.54-15.96s-3.77-6.91-4.52-9.55
		c-0.75-2.64-3.52-11.31-3.52-11.31s-2.64-9.55-4.78-12.44c-2.14-2.89-6.91-4.52-8.67-4.9c-1.76-0.38-4.02,0.25-5.28-0.13
		c-1.26-0.38-1.63-1.76-2.89-2.39c-1.26-0.63-2.89-1.13-2.89-1.13c-3.39-1.76-4.65-5.53-5.4-10.56c-0.75-5.03-1.26-12.32-1.26-12.32
		c2.76-2.39,2.89-6.66,2.89-6.66s1.26,0.13,1.76-0.88c0.5-1.01-0.75-3.14-0.75-3.14c-0.75-1.76-0.25-3.27-0.25-3.27
		s-0.5-1.76-1.01-9.3c-0.5-7.54-7.79-13.82-7.79-13.82c-6.52-3.67-12.23-2.34-16.1-0.35c-0.87-0.42-1.62-0.78-1.62-0.78l-0.32,1.91
		c-0.11,0.07-0.22,0.14-0.32,0.21l-1.49-0.75v1.87c-0.51,0.42-0.9,0.79-1.16,1.04l-0.85,0.11c0,0,0.75-3.9-0.75-5.53
		c-1.51-1.63-4.4-3.52-5.15-8.8l-0.38-3.39l-1.01,3.27c0,0-1.89-5.15-3.02-5.91l-0.63,2.39l-3.9-1.89c0,0,3.77,3.77,3.77,7.67
		c0,0-2.26-4.02-2.89-4.65c-0.63-0.63,1.26,2.14,1.76,4.4l-4.15-2.26c0,0,3.39,4.4,4.02,6.28c0.63,1.89,0.38,2.26-0.88,0.5
		c-1.26-1.76-5.03-7.41-5.53-8.8c-0.5-1.38-1.63-9.68-6.41-14.33c0,0,4.9,10.68,4.9,13.82s0.88,6.28,1.01,6.91s-5.03-1.63-6.41-4.78
		c-1.38-3.14-7.92-11.56-8.04-15.33c0,0-0.63,4.15,3.27,10.43c0,0-3.9-6.41-5.28-6.91c-1.38-0.5-2.39-1.38-4.02-1.38
		c0,0,3.02,1.38,4.4,3.14c1.38,1.76,5.4,8.29,5.4,8.29s-4.9-5.91-8.8-6.79c0,0,12.57,11.94,13.57,15.33c0,0-3.14-3.77-6.91-5.15
		c-3.77-1.38-5.78-1.01-5.78-1.01s-6.03-6.28-17.59-4.4c0,0,10.93,0,13.45,3.77c0,0-5.53-1.51-7.54-1.51
		c-2.01,0-6.91,0.38-6.91,0.38s6.54,1.26,7.92,4.27l0.25,1.26l-1.63,1.76c0,0-9.68-2.01-14.2,0c0,0,11.44-0.38,12.44,1.13
		c0,0,0.88,0.75-2.01,0.75c-2.89,0-10.18-1.13-13.07,2.64c0,0,9.43-1.63,12.32,0.5c0,0-4.4,1.89-6.16,2.64l5.91-0.5
		c0,0-1.26,2.26-3.52,3.9c0,0,5.03-2.76,6.66-2.51s3.52,0.63,1.63,0.75c-1.89,0.13-12.19,4.65-13.07,5.66c0,0,0.13,0,3.9-0.63
		s6.28-2.89,10.18-3.39c3.9-0.5,8.42,4.78,9.17,5.78c0,0-10.81-2.89-13.07-2.64s-6.41,1.01-11.69,4.15c0,0,9.17-3.39,13.07-2.26
		c3.9,1.13,5.15,2.01,9.3,2.76c2.66,0.48,4.74,0.71,5.9,0.81c-1.8,0.48-4.41,1.15-6.15,1.46c-2.89,0.5-2.01-0.5-5.53-1.38
		c-3.52-0.88-6.28,0.25-6.28,0.25s3.77-0.25,6.28,1.26c2.51,1.51,4.65,2.01,6.54,1.13c1.16-0.54,5.02-0.32,7.83-0.07l0.21,0.2
		c0,0-6.66,2.01-10.31,1.76c-3.64-0.25-4.9-0.75-7.04-0.63c-2.14,0.13-7.04,2.14-11.44,1.51c0,0,3.39,1.13,8.04,0.88
		c4.65-0.25,5.15,0.88,5.15,0.88s-3.77,1.01-8.17,0.5c-4.4-0.5-7.04,0.88-8.04,1.13c-1.01,0.25,2.89,0.13,6.16,0.13
		c3.27,0,5.78,0.75,5.78,0.75s-8.42,1.26-10.93,3.27c0,0,2.51,0.38,4.15-0.25c1.63-0.63,5.78-1.01,5.78-1.01s-9.68,3.9-11.19,5.53
		c0,0,9.17-3.52,12.82-4.15c3.64-0.63,6.03-2.01,8.92-2.26c2.89-0.25,2.26,1.26,1.89,1.13c-0.08-0.03-0.78,0.28-1.86,0.81
		c-2.7,0.18-9.43,0.93-15.11,3.96c0,0,7.83-2.04,12.58-2.63c-4.3,2.35-10.55,6.15-12.96,9.04c0,0,14.58-8.55,17.34-9.17
		c0,0,4.4-0.38,4.65,1.01c0.25,1.38-19.98,8.04-19.98,8.04s4.52,0.38,7.29-0.88c2.76-1.26,6.03-2.89,8.04-2.51
		c2.01,0.38,2.39,0.25,2.39,0.25s-3.52,2.76-3.39,3.9c0.13,1.13,0.13,1.76-2.14,2.89c-2.26,1.13-8.55,6.66-8.55,6.66l0.13,0.88
		l1.38-0.13l8.29-6.41c0,0,1.63,0.13-0.13,2.01c-1.76,1.89-7.92,5.15-7.92,5.15s-0.63,1.26,0.88,0.75c1.51-0.5,4.78-1.63,4.78-1.63
		l-2.51,6.66l5.28-6.79c0,0-0.5,6.41,0.38,8.55c0,0,0.13-7.92,2.76-10.18l1.13-0.13c0,0-2.01,8.42-0.88,10.93
		c0,0,2.26-9.55,3.27-11.06l-0.63,8.8c0,0,0.5,4.27-0.88,7.54c0,0,2.51-0.88,2.26-4.02c-0.25-3.14-0.13-12.82,1.89-14.2
		c0,0-1.76,3.9-1.26,8.8c0.5,4.9,1.26,9.93,2.01,11.31c0,0,0.75-5.53,0-6.91c-0.75-1.38-1.01-1.76-0.88-4.4
		c0.13-2.64,0.88-6.91,1.76-7.16c0,0,1.38-6.28,0.38,3.02c-1.01,9.3,0.63,14.2,0.63,14.2s0.25,2.14,1.76,2.89
		c0,0-0.38-2.89-1.01-5.66c-0.63-2.76,1.38-13.7,1.38-13.7s-1.13,9.3-0.63,11.94c0.5,2.64,2.39,0.88,2.39,3.02
		c0,2.14,2.01,6.79,2.26,6.79c0.21,0,0.51-4.12,0.6-5.4c0.73,1.33,1.51,2.42,1.85,2.89c-6.91,6.64-7.98,29.41-7.98,29.41
		c-1.01,2.26-6.28,17.09-7.54,20.86c-1.26,3.77-1.26,4.52-3.02,5.78c-1.76,1.26-7.54,3.02-7.54,3.02l-9.55,3.52
		c-3.02,2.26-24.63,5.03-27.9,5.03c-3.27,0-3.77,1.01-3.77,1.01s-2.01-1.26-4.78,0.75c-2.76,2.01-5.03,6.28-5.03,6.28
		s-1.51,0-2.26,0.5c-0.75,0.5-4.02,5.78-4.02,5.78v2.51l-1.01,0.75c0,0-0.5,1.76,3.02,3.27c3.52,1.51,6.28-0.5,6.28-0.5
		c1.76-2.51,3.52-1.26,3.52-1.26c3.77,0.5,4.27-3.77,4.27-3.77c5.03-6.54,10.31-6.79,10.31-6.79s19.1-0.25,26.39-1.26
		c7.29-1.01,19.61-2.51,22.62-4.27c3.02-1.76,3.52-5.78,3.52-5.78c4.52-4.78,5.53-9.55,5.53-9.55l4.78-10.81
		c3.52-7.54,4.02-13.57,4.02-13.57l3.02,3.77l-0.75,1.51l3.52,5.53c0,0,0.5,3.27,2.26,4.52s1.51,3.02,2.01,4.78
		c0.5,1.76,1.51,5.53,2.01,6.28c0.5,0.75,1.26,2.76,1.26,3.52c0,0.75-2.26,5.28-2.51,6.54c-0.25,1.26,1.01,4.78,1.01,6.28
		c0,1.51-2.76,3.27-2.76,3.27c-1.51,1.01-3.02,5.78-2.76,6.79c0.25,1.01-0.25,4.78-0.25,4.78l-1.01,2.51
		c-4.02,2.26-4.52,4.02-4.52,5.78c0,1.76,2.01,2.26,2.01,2.26s-0.25-1.01,0.5-3.02c0.75-2.01,2.01,0,2.01,0l-1.51,4.78
		c-1.26,8.04-0.75,13.57-0.75,14.83c0,1.26,0.75,3.02,1.76,6.54c1.01,3.52,3.77,4.02,4.02,5.03c0.25,1.01,8.29,7.04,8.29,7.04
		s6.28,3.77,9.3,6.28c3.02,2.51,8.8,10.05,14.08,13.57c5.28,3.52,13.82,14.58,13.82,14.58c-4.27-0.5-11.31,4.52-19.35,12.57
		c-8.04,8.04-16.34,19.61-24.63,29.91c-8.29,10.31-13.82,14.33-13.82,14.33l-1.51-1.51l-7.29,4.02l-0.5,1.51l-2.76,2.26
		c0,0-3.27,1.01-4.52,4.52c-1.26,3.52,0.5,4.52,0.5,4.52l9.05,11.81c1.51,7.04,16.59,15.08,16.59,15.08
		c8.8,9.05,18.6,11.06,18.6,11.06c5.03-0.5,2.76-2.51,3.52-3.77c0.75-1.26-1.76-5.78-1.76-5.78s-0.75-0.25-1.01-2.26
		c-0.25-2.01-2.26-2.26-2.26-2.26s-2.01-4.78-2.51-6.79c-0.5-2.01,0-5.03,0-5.03l0.25-1.26l0.5-1.76c0,0,0.5-2.01,0.5-3.52
		s-0.75-4.27-0.75-4.27s1.51-1.51,1.51-2.76c0-1.26-0.25-1.76-0.25-1.76s11.31-11.81,34.94-22.87c23.63-11.06,37.7-26.14,37.7-26.14
		c6.28-4.78,4.02-11.81,4.02-11.81c-1.01-10.56-3.27-18.1-3.27-18.1s-1.51-6.54-5.53-17.59c-4.02-11.06-14.08-23.88-14.08-23.88
		v-1.51l-1.51-3.77l-0.5-1.01l-0.25-1.01l-1.01-2.01c0,0-0.5-1.26-0.5-2.01c0-0.75-0.25-1.51-0.25-1.51l-0.25-1.51l-1.01-1.76
		l-0.75-1.26c0,0,0-1.76,0-2.76c0-1.01,0,0,0-1.76c0-1.76,1.01-2.51,1.01-2.51l-2.26-5.78l0.5-2.51l-2.01-2.76
		c0,0-0.5-2.26-0.25-3.52s-0.5-2.26-0.5-2.26l-0.25-3.27c-2.26-12.82-0.5-25.39-0.5-25.39c0.13-0.88,0.75,0.13,0.75,0.13
		c0.75,4.02,6.54,11.81,6.54,11.81s3.64,4.15,4.78,6.91c1.13,2.76,2.01,2.01,8.67,7.29c6.66,5.28,24.26,13.57,24.26,13.57
		l10.59,5.18c0.64,0.35,0.97,1.09,0.78,1.8c-0.42,1.6-1.14,4.34-1.31,5.21c-0.25,1.26,0.88,0.75,1.26,1.38
		c0.38,0.63-0.25,2.01,0.13,2.89s1.63,0.25,1.63,0.25s0.25,0.5,1.13,0.75c0.88,0.25,1.01,0,1.01,0s0.38,1.38,1.51,1.38
		c1.13,0,1.01,0,1.38,0s2.39,0,2.39,0c4.02-1.13,4.52-4.15,4.9-5.28C572.81,203.24,571.56,203.24,571.56,203.24z M409.56,41.62
		c-1.38-2.14-7.67-2.26-7.67-2.26c-1.38-1.51,0.88-1.89,0.88-1.89C410.57,38.98,410.94,43.76,409.56,41.62z M408.18,76.56
		c0.38-2.01,3.64-4.27,3.64-4.27c1.51-0.13,5.03-1.76,5.03-1.76C414.46,73.67,408.18,76.56,408.18,76.56z M412.7,70.53
		c1.51-2.39,5.69-3.99,5.53-3.64C415.97,71.79,412.7,70.53,412.7,70.53z M412.7,65.5c-2.26-0.5-3.39-0.25-3.39-0.25
		s0.75-1.63,3.02-1.63c2.26,0,6.28,1.38,6.28,1.38S414.96,66,412.7,65.5z M445.83,71.39c-0.45,1.47-1.26,3.29-2.71,5.29
		c-1.8,2.48-4.09,5.39-5.95,7.7C438.28,79.66,442.22,74.32,445.83,71.39z M422.63,97.3c-2.01-1.13-0.63-6.41-0.63-6.41
		s1.01-0.5,0.5-1.38c-0.5-0.88,1.01-2.89,2.14-3.77c0,0,2.64-3.02,1.01,1.89c-1.63,4.9-2.64,5.4-2.51,8.67
		c0.02,0.51,0.13,1.04,0.28,1.59C423.19,97.67,422.94,97.47,422.63,97.3z M427.15,103.33c-0.17,0.13-0.32,0.28-0.48,0.43
		c-0.3-0.93-1.15-3.73-1.15-5.59c0-2.26,1.13-4.9,1.13-5.28s1.26-3.9,2.76-4.78c0,0,0.5,1.63-0.75,3.9
		c-1.26,2.26-0.38,6.41-0.38,7.16c0,0.38,0.41,1.89,0.82,3.3C427.86,102.93,427.15,103.33,427.15,103.33z M430.1,102.16
		c0.08-1.52,0.13-3.19,0.07-3.99c-0.13-1.63-0.88-3.64-0.88-3.64s0.75-1.13,0.75-1.63c0-0.4,1.04,5.26,3.76,8.54
		C432.37,101.58,431.12,101.86,430.1,102.16z M435.95,101.32c-0.14,0-0.27,0.01-0.41,0.01c-1.08-0.91-2.38-2.12-2.73-2.9
		c-0.63-1.38-2.64-8.04-1.38-10.05c0,0,0.38,1.76,1.26,4.78c0.88,3.02,2.26,6.03,5.66,6.91c0,0-3.77-5.66-3.77-8.67l9.77,8.34
		C441.77,101.2,439.4,101.32,435.95,101.32z M443.49,97.42l3.81,0.07c-0.54,0.5-1.06,0.93-1.56,1.31L443.49,97.42z M449.39,95.37
		c-2.18,0.17-7.26,0.48-8.54-0.21c-1.47-0.79-4.36-3.73-4-8.71c2.02-2.54,4.82-5.98,6.52-8.26c1.66-2.24,3.44-5.01,4.66-6.97
		c1,1.22,4.58,5.64,5.02,6.72c0.5,1.26,1.01,8.29,1.01,8.29l-0.75,3.27C453.29,89.51,453.51,90.88,449.39,95.37z"/>
</g>
<g>
	<g>
		<path d="M178.62,436.21c-5.42,0-10.45-1.43-15.06-4.3c-1.43-0.89-2.84-1.8-4.24-2.74c-29.3-19.6-52.75-49.25-69.91-72.9
			c-11.92-16.42-24.32-45.76-36.86-87.2l-0.47-1.54c-3.5-11.51-24.87-56.25-27.59-61.69c-1.33-2.67-1.66-4.82-0.96-6.41
			c0.64-1.45,1.87-1.84,2.01-1.88l0.49,1.71l-0.24-0.86l0.26,0.85c-0.02,0.01-0.6,0.21-0.9,0.93c-0.31,0.74-0.4,2.19,0.94,4.86
			c3.1,6.19,24.14,50.25,27.7,61.97l0.47,1.54c12.49,41.25,24.8,70.41,36.6,86.67c17.07,23.52,40.39,53.02,69.45,72.46
			c1.38,0.93,2.78,1.83,4.19,2.71c8.32,5.19,18.21,5.36,29.37,0.52c20.58-8.92,38.84-32.06,40.24-33.87c0.17-0.38,0.65-1.03,2-2.85
			c4.36-5.9,15.95-21.59,24.63-41.31c8.78-19.95,44.84-140.94,45.2-142.16c0.94-4.48,1.32-8.91,0.81-9.61l1.04-1.43
			c1.66,1.11,0.85,6.85-0.13,11.48c-0.38,1.29-36.48,122.39-45.3,142.44c-8.76,19.91-20.43,35.71-24.82,41.66
			c-0.82,1.11-1.54,2.09-1.75,2.43l-0.01,0.11l-0.17,0.22c-0.19,0.25-19.3,25.11-41.04,34.54
			C188.95,434.99,183.62,436.21,178.62,436.21z"/>
	</g>
	<path d="M186.32,402.96c1.03,1.17,2.31,3.49,1.84,7.54l-1.51,6.79c0,0,2.51,8.8,2.76,13.82c0,0-1.26,3.77-7.29,3.27l-7.54,0.5
		c0,0-5.53,0-6.03-1.76s-0.75-8.29-0.75-8.29l-1.76-1.76l-10.56,2.26c0,0-4.02,1.63-5.03,0.13l-0.5-1.76c0,0-2.89-0.25-3.02-2.14
		s-0.25-9.17-0.25-9.17l0.63-0.63c0,0-2.76-3.39-2.64-5.15c0.13-1.76-0.75-10.18-0.75-10.18l2.14-5.53c0,0-0.38-2.89,0.75-3.64
		v-1.26c0,0-8.92-31.13-10.6-44.36c-1.68-13.24-1.17-17.76-1.17-17.76s0.5-4.52,2.01-8.71s2.51-10.05,1.51-18.26
		c-1.01-8.21-2.68-17.59-5.7-24.63h-3.69l-4.19-3.69l0.17-8.38l1.17-1.68c0,0-0.84-0.67-0.84-1.84s0-1.01,0.34-2.01
		s-0.34-0.84-0.34-2.01s-0.34-2.18-0.17-3.02c0.17-0.84,0.84-3.18,0.5-7.37c0,0-1.51-2.18-1.17-5.53c0.34-3.35,1.01-3.02,0.67-5.53
		s-1.17-5.53-0.34-7.37c0.84-1.84,0.34-1.68-0.34-2.68c-0.67-1.01-1.51-3.18-0.34-6.03c1.17-2.85,2.01-4.69,2.01-4.69
		s0.17-5.36,1.34-6.2c0,0-0.67-4.52,1.84-7.21l0.5-1.51c0,0-1.01-11.73,2.18-19.77c0,0,0.84-2.35-0.17-4.52s-1.51-3.52-1.51-3.52
		s-3.52-8.71-1.17-13.41c0,0,1.17-1.51,0.5-3.18c-0.67-1.68-0.17-5.03-0.17-5.03s-0.34-2.01-2.01,0.17
		c-1.68,2.18-3.35,6.54-3.85,8.38c-0.5,1.84-1.51,3.52-6.54,9.89c0,0-3.35,4.36-4.36,6.7c0,0-5.03,9.05-34.85,14.58
		c0,0-7.71,2.18-18.77,3.18l-8.88,8.04c0,0-2.35,2.51-5.36,2.18l-5.53-0.17c0,0-4.02,4.52-7.21,3.02s-3.85-2.85-3.85-2.85
		l-1.68,1.84c0,0-2.18-0.17-4.02-5.7l3.69-1.17l0.5-1.84l7.71-7.88c0,0,0.34-1.51,2.68-3.18c2.35-1.68,6.87-4.52,11.56-4.19
		c4.69,0.34,17.43-4.19,17.43-4.19s7.54-2.35,15.42-9.22s14.08-6.87,14.08-6.87s8.21-10.05,13.07-23.96
		c4.86-13.91,7.04-22.96,14.08-29.66c0,0,0.67-1.51,2.01-2.01s9.22-3.35,9.22-3.35s3.69-0.84,5.03-1.01
		c1.34-0.17,1.51-1.51,3.02-1.84c1.51-0.34,2.18,0,2.18,0s0.5-1.01,1.17-1.17c0.67-0.17,4.69-1.01,5.19-1.01s0.5-1.84,0.5-1.84
		s2.85-0.34,2.85-2.85l0.5-14.75l-1.68-4.69c0,0-2.01,0.84-2.51-0.34c-0.5-1.17-2.18-4.52-2.18-5.03s0-1.51,0-1.51
		s-0.17-3.35,1.68-3.52l-0.34-7.54c0,0,0.5-3.85,1.84-3.85l0.34-6.7l0.5-2.85c0,0,7.71-9.64,8.71-9.64s1.01,0.13,2.89-0.38
		c1.89-0.5,4.4-0.38,5.53,0.38c1.13,0.75,2.01,0.5,2.01,0.5s3.27-2.14,6.16,0.13s3.77,3.9,3.77,3.9s2.01,1.38,2.89,4.02
		s0.25,4.65,0.25,4.65s1.13,0.38,1.01,2.51l0.5,1.26c0,0,0.63,2.89,0.88,4.78c0.25,1.89,0.5,7.54,0.13,11.06
		c0,0,0.88-1.51,1.26-0.75c0.38,0.75,0.63,3.52,0.13,4.9c-0.5,1.38-1.76,5.28-2.76,5.4c-1.01,0.13-1.76-0.88-1.76-0.88l-1.13,0.38
		l-1.89,3.52l-0.5,13.2c0,0-0.5,3.14,2.14,3.77c0,0,11.94,5.28,21.49,6.91c0,0,3.52,0.13,4.52,0.25c1.01,0.13,3.14,0.88,5.28,3.64
		c2.14,2.76,5.66,8.67,5.66,8.67s3.02,5.91,4.02,14.45c0,0,0.5,3.14,1.63,5.78c1.13,2.64,3.9,7.04,6.03,10.93
		c2.14,3.9,4.4,9.3,4.4,9.3s1.76,3.27,5.28,4.78s10.31,4.65,15.96,10.18c5.66,5.53,24.88,11.69,24.88,11.69s1.76,0.13,3.39,0.75
		c1.89,0.73,1.26,0.88,1.26,0.88s3.9,0,6.16,0.88c2.26,0.88,7.16,4.78,7.41,5.66c0.25,0.88,3.9,7.41,7.41,10.31
		c0,0,1.26,0.38,0.38,2.14l2.39,0.88c0,0,1.26,1.76-0.13,3.52c-1.38,1.76-1.63,1.76-2.51,1.76s-1.76-0.5-1.76-0.5l-2.76,2.51
		c0,0-0.88,1.26-2.51,0.25l-3.52-2.39c0,0-2.57-2.18-5.7-2.4c-0.83-0.06-1.62-0.38-2.22-0.97c-1.79-1.77-5.44-5.5-6.66-7.56
		c0,0-2.51-3.9-5.66-3.77c0,0-21.74-3.77-38.96-10.68c0,0-9.93-4.15-10.68-4.78c-0.75-0.63-4.02-3.39-5.91-7.54
		c0,0-2.89-3.64-5.4-5.78c-2.51-2.14-6.16-8.04-7.79-13.07l-0.63-3.39c0,0-1.26-1.89-1.51,0.63c0,0,0.25,5.91-0.88,8.55
		c-1.13,2.64-2.64,6.91-2.64,8.42c0,1.51-0.38,6.91-0.5,8.92s-0.75,5.15-0.5,9.3c0.25,4.15,0.63,9.68,0.25,11.81
		c0,0-0.5,0.75-0.13,1.63c0.38,0.88,0.75,1.89,0.63,3.52c-0.13,1.63,0,1.13,0.38,3.52c0.38,2.39,0,4.27,0,4.27s2.01,1.13,2.26,4.65
		c0.25,3.52-0.63,5.4-0.25,5.91c0.38,0.5,1.38,4.02,1.76,5.66c0.38,1.63,0.38,7.67,0.25,10.43c0,0,1.26,0.88,1.13,3.02
		c-0.13,2.14,0.5,4.27-0.25,7.04c-0.75,2.76,0,5.03,0,5.03s0.25,0.63,0.25,2.51s-0.75,8.8-0.75,8.8s0,5.15,0,5.53
		s-0.13,1.63-0.88,2.01l0.5,10.56c0,0,1.51,0.63,1.01,2.14l-4.15,2.26c0,0-2.14,14.7-2.26,16.21c-0.13,1.51-2.14,12.57-2.14,15.21
		s-1.38,10.31-1.38,11.44s-0.13,3.9-0.13,4.52c0,0.63,2.64,9.68,0.75,23.75c0,0-2.01,9.3-4.78,20.86
		c-2.76,11.56-6.91,24.26-6.91,24.26s-0.25,2.51-0.25,3.64c0,0.39-0.12,0.83-0.28,1.23C185.55,401.37,185.73,402.29,186.32,402.96z
		 M172.07,398.94c0.38-3.02-0.38-25.76-0.38-25.76c-0.38-5.03-0.75-4.27-1.38-5.91c-0.63-1.63,0-9.8,0.13-15.08
		c0.13-5.28,2.39-17.09,2.39-17.09s2.14-5.91,1.38-7.67c-0.75-1.76-1.01-5.66-1.01-5.66s-1.26-7.04-1.51-8.42
		c-0.25-1.38-1.13-5.15-0.63-13.57c0.5-8.42-0.25-11.06-0.25-11.06c-0.75-1.51-1.13-5.91-1.13-6.79s0.13-1.63-0.5-2.76
		c-0.63-1.13,0-4.02-1.13-5.28c-1.13-1.26-0.88-3.77-0.88-3.77s-0.13-1.51-0.25-2.01c-0.13-0.5-0.25-1.13-0.25-1.63
		c0-0.5-0.38-1.01-0.88-0.88s-0.25,2.51-0.25,2.51s-0.5,20.74-0.38,24c0.13,3.27-0.13,8.8-0.63,10.56c-0.5,1.76-1.01,6.16-1.01,7.67
		c0,1.51-1.13,3.14-1.13,3.14s-2.89,6.79,0.13,13.45s0.63,21.99,0.63,21.99l-2.14,31.8c0,0,1.63,1.01,2.14,1.51
		c0.5,0.5,0.13,3.27,0.13,3.27s1.51,0.5,3.39,3.9c1.89,3.39,1.63,10.56,1.63,10.56l0.63,2.39l2.76-0.88
		C171.32,399.44,172.07,398.94,172.07,398.94z"/>
	<g>
		<path d="M178.62,436.21c-5.42,0-10.45-1.43-15.06-4.3l0.94-1.51c8.32,5.18,18.21,5.36,29.37,0.52
			c20.57-8.92,38.84-32.06,40.24-33.87c0.17-0.38,0.65-1.03,2-2.85c4.36-5.9,15.95-21.59,24.63-41.31
			c8.78-19.95,44.84-140.94,45.2-142.16l1.71,0.51c-0.36,1.22-36.46,122.32-45.28,142.37c-8.76,19.91-20.43,35.71-24.82,41.66
			c-0.82,1.11-1.54,2.09-1.75,2.43l-0.01,0.11l-0.17,0.22c-0.19,0.25-19.3,25.11-41.04,34.54
			C188.95,434.99,183.62,436.21,178.62,436.21z"/>
	</g>
</g>
</svg>
