<?xml version="1.0" encoding="UTF-8" standalone="no"?>
<svg
   xmlns:dc="http://purl.org/dc/elements/1.1/"
   xmlns:cc="http://creativecommons.org/ns#"
   xmlns:rdf="http://www.w3.org/1999/02/22-rdf-syntax-ns#"
   xmlns:svg="http://www.w3.org/2000/svg"
   xmlns="http://www.w3.org/2000/svg"
   xmlns:sodipodi="http://sodipodi.sourceforge.net/DTD/sodipodi-0.dtd"
   xmlns:inkscape="http://www.inkscape.org/namespaces/inkscape"
   id="svg2287"
   sodipodi:docname="rainbowcolourkeys.svg"
   inkscape:export-filename="/home/joanna/gfx/vector/anon/aiga/aiga_car_rental_.png"
   viewBox="0 0 700.00003 499.99999"
   sodipodi:version="0.32"
   inkscape:export-xdpi="37.806549"
   inkscape:output_extension="org.inkscape.output.svg.inkscape"
   inkscape:export-ydpi="37.806549"
   inkscape:version="0.91 r13725"
   version="1.1"
   width="700"
   height="500">
  <defs
     id="defs5978" />
  <sodipodi:namedview
     id="base"
     bordercolor="#666666"
     inkscape:pageshadow="2"
     inkscape:window-width="1916"
     pagecolor="#ffffff"
     inkscape:zoom="0.4775"
     inkscape:window-x="4"
     showgrid="false"
     borderopacity="1.0"
     inkscape:current-layer="g2297"
     inkscape:cx="98.242756"
     inkscape:cy="30.145409"
     inkscape:window-y="1"
     inkscape:window-height="1035"
     inkscape:pageopacity="0.0"
     showguides="true"
     inkscape:guide-bbox="true"
     fit-margin-top="0"
     fit-margin-left="0"
     fit-margin-right="0"
     fit-margin-bottom="0"
     inkscape:window-maximized="1" />
  <g
     id="g2297"
     transform="translate(-66.443696,504.01786)">
    <g
       id="g6563"
       transform="translate(18.848168,-27.225131)">
      <g
         style="fill:#b14545;fill-opacity:1"
         transform="translate(450.26178,-368.5864)"
         id="g2303">
        <g
           style="fill:#b14545;fill-opacity:1"
           id="g2305">
          <path
             style="fill:#b14545;fill-opacity:1"
             d="m 39.226764,-76.885246 c -40.4839925,0 -73.306636,33.153734 -73.306636,74.0527336 0,40.8969964 32.8226435,74.0468764 73.306636,74.0468764 27.13441,0 50.80654,-14.89928 63.482426,-37.0293 l 29.62695,0 23.49023,-23.724607 18.0293,18.205077 17.31055,-17.48828 17.79101,17.9668 18.0293,-18.205081 18.0293,18.205081 30.60156,-30.9062534 c 4.51,-4.552 4.62,-7.787938 0,-12.4609376 l -25.15039,-25.398437 -147.62695,0 C 90.196924,-61.88032 66.455174,-76.885246 39.226764,-76.885246 Z M 7.0255955,-22.855949 c 10.7450005,0 19.4570325,8.80125 19.4570325,19.6562496 0,10.854 -8.712031,19.6562504 -19.4570325,19.6562504 -10.745,0 -19.4570305,-8.8022504 -19.4570305,-19.6562504 0,-10.8549996 8.7120315,-19.6562496 19.4570305,-19.6562496 z"
             id="path2307"
             inkscape:connector-curvature="0" />
          <path
             id="path2309"
             style="fill:#b14545;fill-opacity:1"
             d="M 101.99,74.053"
             inkscape:connector-curvature="0" />
        </g>
      </g>
      <g
         style="fill:#b1ad44;fill-opacity:1"
         id="g6529"
         transform="matrix(-1,0,0,1,345.48496,-374.86912)">
        <g
           style="fill:#b1ad44;fill-opacity:1"
           id="g6531">
          <path
             inkscape:connector-curvature="0"
             id="path6533"
             d="m 39.226764,-76.885246 c -40.4839925,0 -73.306636,33.153734 -73.306636,74.0527336 0,40.8969964 32.8226435,74.0468764 73.306636,74.0468764 27.13441,0 50.80654,-14.89928 63.482426,-37.0293 l 29.62695,0 23.49023,-23.724607 18.0293,18.205077 17.31055,-17.48828 17.79101,17.9668 18.0293,-18.205081 18.0293,18.205081 30.60156,-30.9062534 c 4.51,-4.552 4.62,-7.787938 0,-12.4609376 l -25.15039,-25.398437 -147.62695,0 C 90.196924,-61.88032 66.455174,-76.885246 39.226764,-76.885246 Z M 7.0255955,-22.855949 c 10.7450005,0 19.4570325,8.80125 19.4570325,19.6562496 0,10.854 -8.712031,19.6562504 -19.4570325,19.6562504 -10.745,0 -19.4570305,-8.8022504 -19.4570305,-19.6562504 0,-10.8549996 8.7120315,-19.6562496 19.4570305,-19.6562496 z"
             style="fill:#b1ad44;fill-opacity:1" />
          <path
             inkscape:connector-curvature="0"
             d="M 101.99,74.053"
             style="fill:#b1ad44;fill-opacity:1"
             id="path6535" />
        </g>
      </g>
      <g
         style="fill:#5641b5;fill-opacity:1"
         transform="matrix(0,1,-1,0,384.93893,-283.05912)"
         id="g6537">
        <g
           style="fill:#5641b5;fill-opacity:1"
           id="g6539">
          <path
             style="fill:#5641b5;fill-opacity:1"
             d="m 39.226764,-76.885246 c -40.4839925,0 -73.306636,33.153734 -73.306636,74.0527336 0,40.8969964 32.8226435,74.0468764 73.306636,74.0468764 27.13441,0 50.80654,-14.89928 63.482426,-37.0293 l 29.62695,0 23.49023,-23.724607 18.0293,18.205077 17.31055,-17.48828 17.79101,17.9668 18.0293,-18.205081 18.0293,18.205081 30.60156,-30.9062534 c 4.51,-4.552 4.62,-7.787938 0,-12.4609376 l -25.15039,-25.398437 -147.62695,0 C 90.196924,-61.88032 66.455174,-76.885246 39.226764,-76.885246 Z M 7.0255955,-22.855949 c 10.7450005,0 19.4570325,8.80125 19.4570325,19.6562496 0,10.854 -8.712031,19.6562504 -19.4570325,19.6562504 -10.745,0 -19.4570305,-8.8022504 -19.4570305,-19.6562504 0,-10.8549996 8.7120315,-19.6562496 19.4570305,-19.6562496 z"
             id="path6541"
             inkscape:connector-curvature="0" />
          <path
             id="path6543"
             style="fill:#5641b5;fill-opacity:1"
             d="M 101.99,74.053"
             inkscape:connector-curvature="0" />
        </g>
      </g>
      <g
         style="fill:#7e2790;fill-opacity:1"
         id="g6545"
         transform="matrix(0.65129417,0.75882535,-0.75882535,0.65129417,456.29483,-296.57663)">
        <g
           style="fill:#7e2790;fill-opacity:1"
           id="g6547">
          <path
             inkscape:connector-curvature="0"
             id="path6549"
             d="m 39.226764,-76.885246 c -40.4839925,0 -73.306636,33.153734 -73.306636,74.0527336 0,40.8969964 32.8226435,74.0468764 73.306636,74.0468764 27.13441,0 50.80654,-14.89928 63.482426,-37.0293 l 29.62695,0 23.49023,-23.724607 18.0293,18.205077 17.31055,-17.48828 17.79101,17.9668 18.0293,-18.205081 18.0293,18.205081 30.60156,-30.9062534 c 4.51,-4.552 4.62,-7.787938 0,-12.4609376 l -25.15039,-25.398437 -147.62695,0 C 90.196924,-61.88032 66.455174,-76.885246 39.226764,-76.885246 Z M 7.0255955,-22.855949 c 10.7450005,0 19.4570325,8.80125 19.4570325,19.6562496 0,10.854 -8.712031,19.6562504 -19.4570325,19.6562504 -10.745,0 -19.4570305,-8.8022504 -19.4570305,-19.6562504 0,-10.8549996 8.7120315,-19.6562496 19.4570305,-19.6562496 z"
             style="fill:#7e2790;fill-opacity:1" />
          <path
             inkscape:connector-curvature="0"
             d="M 101.99,74.053"
             style="fill:#7e2790;fill-opacity:1"
             id="path6551" />
        </g>
      </g>
      <g
         style="fill:#3e9f65;fill-opacity:1"
         transform="matrix(-0.65129417,0.75882535,0.75882535,0.65129417,337.48212,-304.95359)"
         id="g6553">
        <g
           style="fill:#3e9f65;fill-opacity:1"
           id="g6555">
          <path
             style="fill:#3e9f65;fill-opacity:1"
             d="m 39.226764,-76.885246 c -40.4839925,0 -73.306636,33.153734 -73.306636,74.0527336 0,40.8969964 32.8226435,74.0468764 73.306636,74.0468764 27.13441,0 50.80654,-14.89928 63.482426,-37.0293 l 29.62695,0 23.49023,-23.724607 18.0293,18.205077 17.31055,-17.48828 17.79101,17.9668 18.0293,-18.205081 18.0293,18.205081 30.60156,-30.9062534 c 4.51,-4.552 4.62,-7.787938 0,-12.4609376 l -25.15039,-25.398437 -147.62695,0 C 90.196924,-61.88032 66.455174,-76.885246 39.226764,-76.885246 Z M 7.0255955,-22.855949 c 10.7450005,0 19.4570325,8.80125 19.4570325,19.6562496 0,10.854 -8.712031,19.6562504 -19.4570325,19.6562504 -10.745,0 -19.4570305,-8.8022504 -19.4570305,-19.6562504 0,-10.8549996 8.7120315,-19.6562496 19.4570305,-19.6562496 z"
             id="path6557"
             inkscape:connector-curvature="0" />
          <path
             id="path6559"
             style="fill:#3e9f65;fill-opacity:1"
             d="M 101.99,74.053"
             inkscape:connector-curvature="0" />
        </g>
      </g>
    </g>
  </g>
  <metadata
     id="metadata5976">
    <rdf:RDF>
      <cc:Work>
        <dc:format>image/svg+xml</dc:format>
        <dc:type
           rdf:resource="http://purl.org/dc/dcmitype/StillImage" />
        <cc:license
           rdf:resource="http://creativecommons.org/publicdomain/zero/1.0/" />
        <dc:publisher>
          <cc:Agent
             rdf:about="http://openclipart.org/">
            <dc:title>Openclipart</dc:title>
          </cc:Agent>
        </dc:publisher>
        <dc:title></dc:title>
        <dc:date></dc:date>
        <dc:description>remix by j4p4n</dc:description>
        <dc:source></dc:source>
        <dc:creator>
          <cc:Agent>
            <dc:title></dc:title>
          </cc:Agent>
        </dc:creator>
        <dc:subject>
          <rdf:Bag />
        </dc:subject>
      </cc:Work>
      <cc:License
         rdf:about="http://creativecommons.org/publicdomain/zero/1.0/">
        <cc:permits
           rdf:resource="http://creativecommons.org/ns#Reproduction" />
        <cc:permits
           rdf:resource="http://creativecommons.org/ns#Distribution" />
        <cc:permits
           rdf:resource="http://creativecommons.org/ns#DerivativeWorks" />
      </cc:License>
    </rdf:RDF>
  </metadata>
</svg>
